# xmcd
#
# Track frame offsets:
#	150
#	13095
#	30000
#	40678
#	55158
#	68811
#	82006
#	98665
#	113881
#	126372
#	139008
#	150630
#	161657
#	178284
#	213432
#
# Disc length: 3715 seconds
#
# Revision: 1
# Processed by: cddbd v1.5.2PL0 Copyright (c) Steve Scherf et al.
# Submitted via: audiograbber 1.83.01
#
DISCID=c40e810f
DTITLE=Pereza - Algo Para Cantar
DYEAR=2003
DGENRE=Pop
TTITLE0=Pienso En Aquella Tarde
TTITLE1=Si Quieres Bailamos
TTITLE2=Yo Sólo Quiero
TTITLE3=La Noria
TTITLE4=Dale A La Guitarra
TTITLE5=Pelos De Punta
TTITLE6=En Donde Estés
TTITLE7=Tirando De Tu Corazón
TTITLE8=Házmelo
TTITLE9=Manager
TTITLE10=Tu Infierno
TTITLE11=Algo Para Cantar
TTITLE12=Pienso En Aquella Tarde (Con David Summers and Dani Martín)
TTITLE13=Yeah (Canción Inédita)
TTITLE14=Pista De Datos
EXTD=
EXTT0=
EXTT1=
EXTT2=
EXTT3=
EXTT4=
EXTT5=
EXTT6=
EXTT7=
EXTT8=
EXTT9=
EXTT10=
EXTT11=
EXTT12=
EXTT13=
EXTT14=
PLAYORDER=
